<?xml version="1.0" standalone="no"?>
<!DOCTYPE svg PUBLIC "-//W3C//DTD SVG 20010904//EN"
 "http://www.w3.org/TR/2001/REC-SVG-20010904/DTD/svg10.dtd">
<svg version="1.0" xmlns="http://www.w3.org/2000/svg"
 width="700.000000pt" height="700.000000pt" viewBox="0 0 700.000000 700.000000"
 preserveAspectRatio="xMidYMid meet">
<metadata>
Created by potrace 1.14, written by Peter Selinger 2001-2017
</metadata>
<g transform="translate(0.000000,700.000000) scale(0.100000,-0.100000)"
fill="#000000" stroke="none">
<path d="M669 6925 c-3 -2 -20 -7 -39 -10 -245 -43 -442 -224 -534 -490 l-21
-60 -3 -2815 c-2 -2078 0 -2835 8 -2890 37 -242 206 -452 435 -541 39 -16 100
-33 136 -38 43 -7 964 -11 2852 -11 3043 0 2855 -3 2999 55 212 86 383 303
418 531 11 76 10 5673 -2 5709 -3 11 -11 40 -18 64 -51 190 -213 371 -399 446
-141 58 62 54 -3007 55 -1551 0 -2823 -2 -2825 -5z"/>
</g>
</svg>
